<svg width="99" height="73" viewBox="0 0 99 73" fill="none" xmlns="http://www.w3.org/2000/svg">
<path d="M87.1992 59.2297C88.5078 59.2281 89.7624 58.7076 90.6877 57.7823C91.613 56.857 92.1335 55.6024 92.135 54.2939V4.9358C92.1335 3.62722 91.613 2.37266 90.6877 1.44735C89.7624 0.522034 88.5078 0.00152402 87.1992 0H11.5169C10.2083 0.00152402 8.95374 0.522034 8.02843 1.44735C7.10312 2.37266 6.58261 3.62722 6.58109 4.9358V54.2939C6.58261 55.6024 7.10312 56.857 8.02843 57.7823C8.95374 58.7076 10.2083 59.2281 11.5169 59.2297H87.1992ZM13.1622 6.58107H85.554V52.6486H13.1622V6.58107Z" fill="white"/>
<path d="M98.7161 65.8107H0V72.3918H98.7161V65.8107Z" fill="white"/>
</svg>
